<?xml version="1.0" encoding="utf-8"?>
<!-- Generator: Adobe Illustrator 21.0.0, SVG Export Plug-In . SVG Version: 6.00 Build 0)  -->
<svg version="1.1" xmlns="http://www.w3.org/2000/svg" xmlns:xlink="http://www.w3.org/1999/xlink" x="0px" y="0px"
	 viewBox="0 0 198.4 198.4" style="enable-background:new 0 0 198.4 198.4;" xml:space="preserve">
<style type="text/css">
	.st0{fill:#72BB6F;}
	.st1{fill:none;stroke:#FFFFFF;stroke-width:2;stroke-miterlimit:10;}
	.st2{fill:#3DA0DA;}
	.st3{fill:none;stroke:#FFFFFF;stroke-width:2.1572;stroke-miterlimit:10;}
	.st4{fill:#FFFFFF;}
	.st5{fill:none;stroke:#FFFFFF;stroke-miterlimit:10;}
	.st6{fill:#EF7D76;}
	.st7{fill:none;stroke:#FFFFFF;stroke-width:2;stroke-linecap:square;stroke-miterlimit:10;}
	.st8{fill:none;stroke:#3DA0DA;stroke-width:5;stroke-miterlimit:10;}
	.st9{fill:none;stroke:#3DA0DA;stroke-width:2;stroke-linecap:square;stroke-linejoin:round;stroke-miterlimit:10;}
	.st10{fill:#FFFFFF;stroke:#3DA0DA;stroke-width:2;stroke-miterlimit:10;}
	.st11{fill:#FFFFFF;stroke:#3DA0DA;stroke-miterlimit:10;}
	.st12{fill:none;stroke:#3DA0DA;stroke-width:2;stroke-miterlimit:10;}
	.st13{fill:#009E66;}
	.st14{fill:#EF7D76;stroke:#FFFFFF;stroke-miterlimit:10;}
	.st15{fill:#89CCCA;}
	.st16{fill:#89CCCA;stroke:#FFFFFF;stroke-miterlimit:10;}
	.st17{fill:#0A0A0A;}
	.st18{fill:none;stroke:#0A0A0A;stroke-width:2;stroke-miterlimit:10;}
	.st19{fill:#FFFFFF;stroke:#0A0A0A;stroke-miterlimit:10;}
	.st20{fill:none;stroke:#0A0A0A;stroke-miterlimit:10;}
	.st21{fill:#A8C2CA;stroke:#FFFFFF;stroke-width:2;stroke-miterlimit:10;}
	.st22{fill:none;stroke:#89CCCA;stroke-width:2;stroke-miterlimit:10;}
	.st23{fill:#71BC7A;stroke:#FFFFFF;stroke-miterlimit:10;}
	.st24{fill:none;stroke:#EF7D76;stroke-width:2;stroke-miterlimit:10;}
	.st25{fill:#FFFFFF;stroke:#EF7D76;stroke-miterlimit:10;}
	.st26{fill:#72BB6F;stroke:#FFFFFF;stroke-miterlimit:10;}
	.st27{fill:#72BB6F;stroke:#FFFFFF;stroke-width:2;stroke-miterlimit:10;}
	.st28{fill:none;stroke:#71BC7A;stroke-width:2;stroke-linecap:square;stroke-miterlimit:10;}
	.st29{fill:none;stroke:#72BB6F;stroke-width:2;stroke-miterlimit:10;}
	.st30{fill:none;stroke:#72BB6F;stroke-width:2;stroke-linejoin:round;stroke-miterlimit:10;}
	.st31{fill:#FFFFFF;stroke:#72BB6F;stroke-width:2;stroke-miterlimit:10;}
	.st32{fill:#3DA0DA;stroke:#FFFFFF;stroke-miterlimit:10;}
	.st33{fill:#FFFFFF;stroke:#EF7D76;stroke-width:2;stroke-miterlimit:10;}
	.st34{fill:none;stroke:#EF7D76;stroke-miterlimit:10;}
	.st35{fill:#71BC7A;}
	.st36{fill:#FFFFFF;stroke:#72BB6F;stroke-miterlimit:10;}
	.st37{fill:none;stroke:#72BB6F;stroke-width:2.1354;stroke-miterlimit:10;}
	.st38{fill:#FFFFFF;stroke:#72BB6F;stroke-width:2.1354;stroke-miterlimit:10;}
	.st39{fill:#0A0A0A;stroke:#FFFFFF;stroke-width:2;stroke-miterlimit:10;}
	.st40{fill:#0A0A0A;stroke:#FFFFFF;stroke-miterlimit:10;}
</style>
<g id="Ebene_2">
</g>
<g id="Ebene_1">
	<g>
		<g>
			<polygon class="st4" points="39.4,133.3 39.4,64.2 99.4,29.7 159.4,64.2 159.4,133.3 99.4,167.9 			"/>
			<path class="st15" d="M98.9,32.6l57.5,33.1v66.2L98.9,165l-57.5-33.1V65.7L98.9,32.6 M98.9,26.8l-62.5,36v72l62.5,36l62.5-36v-72
				L98.9,26.8L98.9,26.8z"/>
		</g>
		<g>
			<line class="st22" x1="92.4" y1="56" x2="106.4" y2="56"/>
			<line class="st22" x1="99.4" y1="56" x2="99.4" y2="66"/>
			<line class="st22" x1="99.4" y1="135" x2="99.4" y2="143"/>
			<path class="st22" d="M120.6,93.3c0,4.8-9.5,5.3-21.3,5.3c-11.7,0-21.3-0.5-21.3-5.3c0-11.7,9.5-21.3,21.3-21.3
				C111.1,72.1,120.6,81.6,120.6,93.3z"/>
			<path class="st22" d="M120.2,94.9c0-1.7-8.3-2.9-20-2.9h-0.7c-11.7,0-21.3,1.3-21.3,3"/>
			<path class="st22" d="M78.1,106.1c0,1.7,8.3,2.9,20,2.9h0.7c11.7,0,21.3-1.3,21.3-3"/>
			<path class="st22" d="M93.4,72.4c0-3.5,2.8-6.3,6.3-6.3c3.5,0,6.3,2.8,6.3,6.3"/>
			<path class="st22" d="M120.3,106c-1.8-3-10.5-3.9-20.9-3.9c-11.7,0-21.3,0.4-21.3,5.3c0,11.1,8.5,20.2,19.3,21.1v6.5h4v-6.5
				c10.8-1,19.2-10.1,19.2-21.1c0-0.4-0.1-0.7-0.2-1L120.3,106z"/>
			<polyline class="st22" points="78.4,156 78.4,143 120.4,143 120.4,156 			"/>
		</g>
		<g>
			<polyline class="st22" points="70.9,143.6 46.4,129.5 46.4,68.4 63.7,58.1 70.9,53.9 			"/>
			<polyline class="st22" points="74.5,138.9 52.4,126.3 52.4,71.6 74.4,58.6 			"/>
			<polyline class="st22" points="78.1,133.4 58.4,122.5 58.4,75.3 78,64 			"/>
			<polyline class="st22" points="84.1,129.7 64.4,120 64.4,77.8 84,67.8 			"/>
			<polygon class="st4" points="80.8,75.2 77,71.4 72.7,67.1 68,62.4 61.6,56 78.1,46.4 89.1,66 			"/>
			<polygon class="st4" points="58.9,139.3 62.8,135.4 67.1,131.2 71.8,126.5 78.2,120.1 92.4,133.4 68.9,146.2 			"/>
		</g>
		<g>
			<polyline class="st22" points="127,143.6 151.4,129.5 151.4,68.4 134.1,58.1 127,53.9 			"/>
			<polyline class="st22" points="123.4,138.9 145.4,126.3 145.4,71.6 123.5,58.6 			"/>
			<polyline class="st22" points="119.7,133.4 139.4,122.5 139.4,75.3 119.8,64 			"/>
			<polyline class="st22" points="113.7,129.7 133.4,120 133.4,77.8 113.8,67.8 			"/>
			<polygon class="st4" points="117,75.2 120.9,71.4 125.2,67.1 129.9,62.4 136.3,56 119.7,46.4 108.8,66 			"/>
			<polygon class="st4" points="138.9,139.3 135,135.4 130.8,131.2 126.1,126.5 119.7,120.1 105.4,133.4 128.9,146.2 			"/>
		</g>
		<g>
			<rect x="72.4" y="134" class="st15" width="53" height="12"/>
			<g>
				<path class="st4" d="M75.1,135.9h1.3l1.7,4.7l1.7-4.7h1.3v7H80v-4.7l-1.5,4.1h-0.8l-1.5-4.1v4.7h-1.1V135.9z"/>
				<path class="st4" d="M84.6,139.8h0.9v-0.2c0-0.6-0.5-0.9-1-0.9c-0.4,0-0.8,0.2-0.9,0.7l-0.9-0.2c0.2-0.8,0.9-1.4,1.9-1.4
					c1.2,0,2,0.5,2,2v3.1h-0.9l-0.1-0.7c-0.3,0.5-0.8,0.7-1.6,0.7c-0.8,0-1.5-0.5-1.5-1.5C82.4,140.4,83.3,139.8,84.6,139.8z
					 M84.1,142.1c0.6,0,1.3-0.4,1.3-1.3v-0.1h-0.9c-0.6,0-1,0.3-1,0.8C83.5,141.8,83.7,142.1,84.1,142.1z"/>
				<path class="st4" d="M89.8,137.8c0.3,0,0.6,0.1,0.9,0.2l0.9-0.5l0.4,0.8l-0.7,0.4c0.1,0.2,0.2,0.5,0.2,0.8
					c0,1.1-0.8,1.7-1.8,1.7c-0.3,0-0.6-0.1-0.8-0.2c-0.2,0.1-0.3,0.2-0.3,0.4c0,0.3,0.2,0.4,0.5,0.4h1.1c1,0,1.7,0.5,1.7,1.4
					c0,1.2-1.1,1.7-2.2,1.7c-1.3,0-2.2-0.6-2.2-1.7c0-0.4,0.2-0.8,0.4-1c-0.2-0.2-0.3-0.4-0.3-0.8c0-0.5,0.2-0.8,0.6-1
					c-0.2-0.3-0.3-0.6-0.3-1.1C88,138.4,88.8,137.8,89.8,137.8z M89.3,142.7c-0.2,0-0.3,0-0.5,0c-0.1,0.2-0.2,0.3-0.2,0.6
					c0,0.5,0.5,0.8,1.2,0.8c0.7,0,1.1-0.3,1.1-0.8c0-0.5-0.3-0.6-0.8-0.6H89.3z M89.8,140.3c0.5,0,0.8-0.3,0.8-0.8
					c0-0.5-0.3-0.8-0.8-0.8c-0.5,0-0.8,0.3-0.8,0.8C89,140,89.3,140.3,89.8,140.3z"/>
				<path class="st4" d="M94.9,137.8c0.5,0,1.1,0.3,1.3,0.6v-2.6h1v7.1h-1v-0.6c-0.2,0.3-0.7,0.7-1.4,0.7c-1.5,0-2.2-1-2.2-2.6
					C92.6,138.8,93.3,137.8,94.9,137.8z M95,142.1c0.8,0,1.3-0.6,1.3-1.7c0-1-0.5-1.7-1.3-1.7s-1.3,0.6-1.3,1.7
					C93.7,141.4,94.2,142.1,95,142.1z"/>
				<path class="st4" d="M103.1,140.7h-3.6c0,0.7,0.4,1.4,1.2,1.4c0.5,0,1.1-0.3,1.3-0.8l0.9,0.3c-0.5,0.9-1.1,1.4-2.2,1.4
					c-1.7,0-2.3-1.4-2.3-2.6c0-1.2,0.7-2.6,2.3-2.6c1.6,0,2.3,1.3,2.3,2.4V140.7z M99.5,139.8h2.4c-0.1-0.6-0.5-1.1-1.2-1.1
					C100.1,138.7,99.6,139.2,99.5,139.8z"/>
				<path class="st4" d="M106.6,143c-0.7,0-1.2-0.4-1.4-0.7v0.6h-1v-7.1h1v2.6c0.2-0.3,0.8-0.6,1.3-0.6c1.5,0,2.3,1,2.3,2.6
					C108.8,142,108.1,143,106.6,143z M106.5,138.7c-0.8,0-1.3,0.6-1.3,1.7c0,1,0.5,1.7,1.3,1.7c0.7,0,1.3-0.6,1.3-1.7
					C107.7,139.4,107.2,138.7,106.5,138.7z"/>
				<path class="st4" d="M113.1,142.9V142c-0.4,0.6-1,0.9-1.6,0.9c-0.9,0-1.5-0.5-1.5-1.5v-3.6h1v3.3c0,0.7,0.3,0.9,0.8,0.9
					c0.6,0,1.3-0.8,1.3-2.2v-2h1v5H113.1z"/>
				<path class="st4" d="M115.6,142.9v-5h1v0.8c0.3-0.6,1-0.9,1.5-0.9c0.3,0,0.5,0.1,0.6,0.1l-0.2,0.9c-0.2-0.1-0.4-0.2-0.6-0.2
					c-0.7,0-1.4,0.7-1.4,2.3v1.9H115.6z"/>
				<path class="st4" d="M121.2,137.8c0.3,0,0.7,0.1,0.9,0.2l0.9-0.5l0.4,0.8l-0.7,0.4c0.1,0.2,0.2,0.5,0.2,0.8
					c0,1.1-0.8,1.7-1.8,1.7c-0.3,0-0.6-0.1-0.8-0.2c-0.2,0.1-0.3,0.2-0.3,0.4c0,0.3,0.2,0.4,0.5,0.4h1.1c1,0,1.7,0.5,1.7,1.4
					c0,1.2-1.1,1.7-2.2,1.7c-1.3,0-2.2-0.6-2.2-1.7c0-0.4,0.2-0.8,0.4-1c-0.2-0.2-0.3-0.4-0.3-0.8c0-0.5,0.2-0.8,0.6-1
					c-0.2-0.3-0.3-0.6-0.3-1.1C119.4,138.4,120.2,137.8,121.2,137.8z M120.7,142.7c-0.2,0-0.4,0-0.5,0c-0.2,0.2-0.2,0.3-0.2,0.6
					c0,0.5,0.5,0.8,1.2,0.8c0.7,0,1.1-0.3,1.1-0.8c0-0.5-0.3-0.6-0.8-0.6H120.7z M121.2,140.3c0.5,0,0.8-0.3,0.8-0.8
					c0-0.5-0.3-0.8-0.8-0.8c-0.5,0-0.8,0.3-0.8,0.8C120.4,140,120.7,140.3,121.2,140.3z"/>
			</g>
		</g>
	</g>
	<g>
		<g>
			<path class="st15" d="M96.7,49.5c-0.2-0.1-0.3-0.2-0.5-0.2c-0.3,0-0.4,0.2-0.4,0.6v0.2h1.2v0.5h-1.2v2.6h-0.5v-2.6h-0.9v-0.5h0.9
				v-0.2c0-0.7,0.4-1,0.9-1c0.3,0,0.5,0.1,0.6,0.2L96.7,49.5z"/>
			<path class="st15" d="M99.1,50.1c0.9,0,1.5,0.7,1.5,1.6s-0.6,1.6-1.5,1.6c-0.9,0-1.5-0.7-1.5-1.6S98.2,50.1,99.1,50.1z
				 M99.1,52.7c0.6,0,1-0.5,1-1.1c0-0.6-0.4-1.1-1-1.1c-0.6,0-1,0.5-1,1.1C98.1,52.2,98.5,52.7,99.1,52.7z"/>
			<path class="st15" d="M103.5,51.1c0-0.3-0.2-0.6-0.6-0.6c-0.5,0-1,0.5-1,1.5v1.1h-0.5v-3h0.5v0.6c0.2-0.4,0.6-0.6,1.1-0.6
				c0.6,0,1,0.4,1,1H103.5z"/>
		</g>
		<g>
			<polygon class="st15" points="95.2,40 95.2,40.1 95.2,46.4 95.7,46.4 95.8,46.4 96,46.4 96,40 			"/>
			<g>
				<path class="st15" d="M98.4,47c0.1,0,0.1-0.1,0.1-0.1v-7.6c0-0.1-0.1-0.1-0.1-0.1h-2.5c-0.1,0-0.1,0-0.1,0.1v0.2v0.5
					c0,0.1,0,0.1,0.1,0.1h1.7c0.1,0,0.1,0,0.1,0.1v6c0,0.1-0.1,0.1-0.1,0.1h-1.7c-0.1,0-0.1,0-0.1,0v0.2v0.5c0,0.1,0,0.1,0.1,0.1
					H98.4z"/>
			</g>
			<polygon class="st15" points="99.5,40 99.5,40.1 99.5,46.4 100.2,46.4 100.3,46.4 100.3,40 			"/>
			<g>
				<path class="st15" d="M100.2,47v-0.8c1.1,0,1.9-1.4,1.9-3.1c0-1.7-0.8-3.1-1.9-3.1v-0.8c1.5,0,2.7,1.7,2.7,3.9
					S101.7,47,100.2,47"/>
				<path class="st15" d="M91.8,44.5v1.1V46c0,0.6,0.4,1,1,1H93h0.5h0.6c0,0,0.1-0.1,0.1-0.1v-0.6c0-0.1-0.1-0.1-0.1-0.1h-0.6h-0.3
					H93c-0.3,0-0.3-0.1-0.3-0.4v-0.2v-1v-0.6c0-0.6-0.2-0.8-0.6-0.9c0.3-0.1,0.6-0.3,0.6-0.9v-0.4v-1.1v-0.3c0-0.3,0.1-0.4,0.3-0.4
					h0.2h0.3h0.6c0,0,0.1,0,0.1-0.1v-0.6c0-0.1-0.1-0.1-0.1-0.1h-0.5h-0.5h-0.3c-0.6,0-1,0.4-1,1v0.3v1.3c0,0,0,0.3,0,0.4
					c0,0.3-0.4,0.5-0.6,0.5h-0.3c-0.1,0-0.1,0-0.1,0.1v0.6c0,0.1,0,0.1,0.1,0.1h0.3c0.3,0,0.6,0.2,0.6,0.6
					C91.8,44.2,91.8,44.5,91.8,44.5"/>
				<path class="st15" d="M95.8,39.2h-0.3h-0.3c-0.1,0-0.1,0-0.1,0.1v0.2v0.4v0.1h0.1h0.6H96v-0.1v-0.6v-0.1H95.8z"/>
				<path class="st15" d="M95.2,46.3v0.3v0.3c0,0.1,0,0.1,0.1,0.1h0.2h0.4H96v-0.1v-0.6v-0.1h-0.1L95.2,46.3L95.2,46.3L95.2,46.3z"
					/>
				<path class="st15" d="M100.2,39.2h-0.3h-0.3c-0.1,0-0.1,0-0.1,0.1v0.2v0.4v0.1h0.1h0.6h0.1v-0.1v-0.6v-0.1H100.2z"/>
				<path class="st15" d="M99.5,46.3v0.3v0.3c0,0.1,0,0.1,0.1,0.1h0.2h0.4h0.1v-0.1v-0.6v-0.1h-0.1L99.5,46.3L99.5,46.3L99.5,46.3z"
					/>
				<path class="st15" d="M104.6,44.5v1.1V46c0,0.6,0.4,1,1,1h0.2h0.5h0.6c0,0,0.1-0.1,0.1-0.1v-0.6c0-0.1-0.1-0.1-0.1-0.1h-0.6
					h-0.3h-0.2c-0.3,0-0.3-0.1-0.3-0.4v-0.2v-1v-0.6c0-0.2-0.1-0.4-0.1-0.5h-1.4c0.4,0.1,0.5,0.2,0.6,0.6
					C104.6,44.3,104.6,44.5,104.6,44.5"/>
				<path class="st15" d="M104.5,42.3c-0.1,0.3-0.3,0.4-0.6,0.5h1.3c0.1-0.2,0.2-0.3,0.2-0.6v-0.4v-1.1v-0.3c0-0.3,0.1-0.4,0.3-0.4
					h0.2h0.3h0.6c0,0,0.1,0,0.1-0.1v-0.6c0-0.1-0.1-0.1-0.1-0.1h-0.5h-0.5h-0.3c-0.6,0-1,0.4-1,1v0.3v1.3
					C104.6,41.9,104.6,42.1,104.5,42.3"/>
				<path class="st15" d="M104.7,43.2c0.2,0.1,0.4,0.2,0.6,0.4h1.5c0.1,0,0.1,0,0.1-0.1v-0.6c0-0.1-0.1-0.1-0.1-0.1h-1.5
					C105.1,43,104.9,43.1,104.7,43.2"/>
				<path class="st15" d="M103.6,42.8C103.6,42.8,103.6,42.8,103.6,42.8l-0.1,0.7c0,0.1,0,0.1,0.1,0.1h0.3h1.4
					c-0.1-0.2-0.3-0.3-0.5-0.4c0.2-0.1,0.3-0.2,0.4-0.4H104H103.6z"/>
			</g>
		</g>
	</g>
</g>
</svg>
